inDegrees=no
num_controls=7
num_derivatives=13
num_iterations=104
num_multipliers=7
num_parameters=0
num_slacks=7
num_states=26
objective=0.444919
objective_accelerations=0.057878
objective_balance=0.003572
objective_effort=0.023221
objective_height=0.354752
objective_ligament=0.005495
solver_duration=1468.699045
status=Solve_Succeeded
success=true
DataType=double
version=3
OpenSimVersion=4.5
endheader
time	/jointset/ground_pelvis/pelvis_tilt/value	/jointset/ground_pelvis/pelvis_tx/value	/jointset/ground_pelvis/pelvis_ty/value	/jointset/hip_l/hip_flexion_l/value	/jointset/hip_l/hip_adduction_l/value	/jointset/hip_l/hip_rotation_l/value	/jointset/back/lumbar_extension/value	/jointset/patellofemoral_l/patellar_flexion_l/value	/jointset/knee_l/knee_flexion_l/value	/jointset/knee_l/knee_adduction_l/value	/jointset/knee_l/knee_rotation_l/value	/jointset/ankle_l/ankle_angle_l/value	/jointset/subtalar_l/subtalar_angle_l/value	/jointset/ground_pelvis/pelvis_tilt/speed	/jointset/ground_pelvis/pelvis_tx/speed	/jointset/ground_pelvis/pelvis_ty/speed	/jointset/hip_l/hip_flexion_l/speed	/jointset/hip_l/hip_adduction_l/speed	/jointset/hip_l/hip_rotation_l/speed	/jointset/back/lumbar_extension/speed	/jointset/patellofemoral_l/patellar_flexion_l/speed	/jointset/knee_l/knee_flexion_l/speed	/jointset/knee_l/knee_adduction_l/speed	/jointset/knee_l/knee_rotation_l/speed	/jointset/ankle_l/ankle_angle_l/speed	/jointset/subtalar_l/subtalar_angle_l/speed	/forceset/tau_hip_flexion_l	/forceset/tau_hip_adduction_l	/forceset/tau_hip_rotation_l	/forceset/tau_knee_flexion_l	/forceset/tau_ankle_angle_l	/forceset/tau_subtalar_angle_l	/forceset/tau_lumbar_extension	lambda_cid13_p0	lambda_cid13_p1	lambda_cid13_p2	lambda_cid13_p3	lambda_cid13_p4	lambda_cid13_p5	lambda_cid14_p0	/jointset/ground_pelvis/pelvis_tilt/accel	/jointset/ground_pelvis/pelvis_tx/accel	/jointset/ground_pelvis/pelvis_ty/accel	/jointset/hip_l/hip_flexion_l/accel	/jointset/hip_l/hip_adduction_l/accel	/jointset/hip_l/hip_rotation_l/accel	/jointset/back/lumbar_extension/accel	/jointset/patellofemoral_l/patellar_flexion_l/accel	/jointset/knee_l/knee_flexion_l/accel	/jointset/knee_l/knee_adduction_l/accel	/jointset/knee_l/knee_rotation_l/accel	/jointset/ankle_l/ankle_angle_l/accel	/jointset/subtalar_l/subtalar_angle_l/accel	gamma_cid13_p0	gamma_cid13_p1	gamma_cid13_p2	gamma_cid13_p3	gamma_cid13_p4	gamma_cid13_p5	gamma_cid14_p0
0.5	-0.3453509298268021	-0.04147888030881638	0.7578127672635886	1.112401303489403	-0.4369536906873173	-0.2208441904326945	-0.2545276496989236	0.8115004812145654	0.8115004812145453	-0.1272764314681153	-0.1589900636720188	0.1046300019678967	-0.03449088721690634	-0.7830730080839279	-0.218924701225585	-0.5397421970645058	2.508285833724157	-0.2046783726966658	0.7504320789619471	-0.1142763488628647	2.00059643748536	2.000596437485969	0.1323774395383049	-0.08759895597973678	0.4492604034988737	-0.00518377101526733	-0.171290522093932	0.01911689819447829	-0.01127008605776676	-0.2197350902636415	0.07120671410048131	0.0442789964944311	0.1687723824293929	-9.917928891059132	-20.58496389142694	6.476729441975099	-7.235340859415911	-522.2015287304948	-62.55676334368939	-24.94621647634353	0.8136097677714879	0.6284457836359589	-0.4613368240082069	-1.393459010987447	0.7486201785512319	-0.2101681385606969	1.088419769812805	-1.280763940905119	-1.280763940905116	0.08523252958375455	0.1847448093133892	-0.4985027027571662	0.5565335261150458	-5.595854576477853e-07	-4.24822652230423e-07	2.811588975643949e-06	1.531291855619853e-07	-6.360419429535362e-07	7.144368427532124e-08	-4.586396948131258e-07
0.51	-0.35313910235312	-0.04363642623233111	0.7523934770212991	1.137409597819661	-0.4389641847507439	-0.2133491723094129	-0.2556171913424832	0.831439287317	0.8314392873170037	-0.1259527218427256	-0.1598563082217927	0.1090965021631763	-0.03451679225254737	-0.7744494310971597	-0.2125642417655606	-0.543998542259699	2.493026192903637	-0.1974050496605653	0.7484633060445007	-0.1036743599812253	1.986895789263034	1.986895789263327	0.132362721387093	-0.08564708589142982	0.4439681845501381	-7.55019378405279e-06	-0.1767949617687759	0.01983427247155743	-0.01134850110961766	-0.2225929056222227	0.07097328452335268	0.04455864773790866	0.1729773923339942	-10.2000908681728	-20.63484221828929	6.459357375415339	-7.215632908423822	-525.895967424661	-62.12935664287888	-24.02382438679966	0.9034713381307052	0.6429165830735233	-0.3903117516899031	-1.644324948270548	0.7186695141236165	-0.206864509402558	1.039731427529179	-1.454973410553069	-1.454973410600343	-0.04503744945768223	0.201414108893533	-0.5552900356073995	0.4963408563354998	-5.467582059573094e-07	-3.178857158341228e-07	2.865056111496717e-06	1.780500765783441e-07	-6.12849995552655e-07	1.470431164481086e-07	-4.513869075487446e-07
0.52	-0.360837691174769	-0.04572975345006805	0.7469351176501746	1.162254874075578	-0.4409015493542122	-0.2058771684435207	-0.2566019845011884	0.851233035307679	0.8512330353077046	-0.1246292020912432	-0.1607028328706255	0.1135079384600334	-0.03449130018073945	-0.7651562671503428	-0.2060809600700238	-0.5475560228314864	2.475682218855665	-0.1900524807050978	0.7458292274844153	-0.09332665189199862	1.971584815134438	1.971584815134416	0.1323394647565205	-0.0836549757909556	0.4382476238143766	0.005095650474520549	-0.1822994014436197	0.02055164674863258	-0.01142691616143848	-0.2254507209808061	0.07073985494622258	0.04483829898138051	0.1771824022385977	-10.48569225123042	-20.68471407330078	6.442666594300156	-7.23041576532952	-529.6728674024542	-61.76158413557384	-23.10279416457918	0.9475271597812052	0.65301023073842	-0.3215638993270006	-1.810325656477918	0.764469362424635	-0.3432292670885241	1.037563611330256	-1.602829122159264	-1.602829122159142	0.08352483371163708	0.1927928117468342	-0.5841710601623878	0.5419294954793065	-5.327428096278155e-07	-2.587609383330858e-07	2.866521450370299e-06	1.912925116775866e-07	-5.907824416205191e-07	2.173514433630194e-07	-4.449649239093945e-07
0.53	-0.3684401594364856	-0.04775775736502391	0.7414446869137319	1.186916661116676	-0.4427650064847234	-0.1984344935328909	-0.2574846448880665	0.870865810197471	0.8708658101975334	-0.1233060710765503	-0.1615290815966999	0.1178600509166892	-0.03441515621357934	-0.7552304009473932	-0.1995110195844594	-0.5504108175200613	2.456344998560896	-0.1826304546389253	0.7426115281481986	-0.08326580943092117	1.954712974061973	1.954712974061777	0.1322744317366547	-0.08158414077159692	0.4321026273948213	0.01011430752349469	-0.1877768484306103	0.02107919473656296	-0.01143018343850674	-0.2281094791334937	0.07007274519642562	0.04508728098991654	0.1812996199440036	-10.90929301899105	-20.69284349977499	6.414453068683768	-7.02763561635861	-533.3736101709751	-61.40086922317824	-22.18480472395648	1.031094403672086	0.6603461075609969	-0.2496570513636046	-2.045030083987707	0.7319991947073707	-0.3255530185478684	0.9812869714143322	-1.767851595764756	-1.767851595791098	-0.05330627166782391	0.2164010210866208	-0.6404836794665187	0.4787102550698925	-5.161467451510264e-07	-1.768845732075269e-07	2.878842827392967e-06	2.122038931098367e-07	-5.698411467854506e-07	2.894189394861578e-07	-4.351463502103853e-07
0.54	-0.375940173425548	-0.04971978984510503	0.7359292642708554	1.211375153981226	-0.4445540573613735	-0.1910268981659557	-0.2582685083687498	0.8903221686773464	0.8903221686774387	-0.1219839481724277	-0.1623341875377619	0.1221485494598268	-0.0342894503868368	-0.7446654126196351	-0.1928866730950754	-0.5525544041182647	2.435023383545672	-0.1751712299330007	0.7388133187455974	-0.07356727065312964	1.93630153315052	1.936301533150148	0.132137842643505	-0.07942641878998953	0.4255248411106893	0.01500802239100598	-0.1932542954175898	0.02160674272449521	-0.01143345071565667	-0.2307682372861755	0.06940563544662898	0.04533626299845604	0.18541683764942	-11.33643156337509	-20.7009746244624	6.386951096911874	-6.857518040895156	-537.1570328998232	-61.10018987974576	-21.2734704368401	1.075351584742906	0.663891431502315	-0.1793222812526913	-2.207204600569145	0.7719090903750598	-0.4593312803654447	0.9651028746730826	-1.910749089957082	-1.910749089957052	0.06921361905485802	0.2101702041965772	-0.6707290330777385	0.5169410591867289	-4.966954733623361e-07	-6.983623879526254e-08	2.903175140240157e-06	2.416000662296698e-07	-5.501459258450098e-07	3.634327504779735e-07	-4.215698470836682e-07
0.55	-0.3833315591108607	-0.0516153737929473	0.7303959764034896	1.235610851316296	-0.446268282259952	-0.1836598708419497	-0.2589572116487817	0.9095868686181589	0.9095868686181974	-0.1206635826037147	-0.1631170847417977	0.1263692103346937	-0.03411533271767442	-0.7335122325279776	-0.1862266840616477	-0.5539815351933914	2.411796048749457	-0.1676718384098922	0.7344929661773932	-0.06424887155070609	1.916393736132334	1.916393736132398	0.1319241730311932	-0.07714850926944086	0.4185431476317907	0.01979328194014433	-0.1985288496042083	0.02197237539111255	-0.01137831729964623	-0.2335831537790594	0.06893794339636865	0.04537129434395142	0.1893376481705528	-11.70161034573056	-20.62054972689658	6.337920522101706	-6.64679756570854	-540.8702276426056	-60.66578453545739	-20.37324735722743	1.150156062223936	0.6676190278560215	-0.1062712770457584	-2.428583539220238	0.7388644573492305	-0.4336161299835056	0.9038854984245686	-2.067420006834814	-2.067420006769368	-0.06824025515787413	0.2378648619073556	-0.7214881453914471	0.4556447951908543	-4.734573245957548e-07	2.19924012708798e-08	2.895691797462466e-06	2.638709225553006e-07	-5.258073555117157e-07	4.311540230542468e-07	-4.060399233623322e-07
